<svg xmlns="http://www.w3.org/2000/svg" width="40" height="44.444" viewBox="0 0 40 44.444">
  <path id="Контур_14" data-name="Контур 14" d="M45.883,59.123H41.439v4.444h4.444Zm8.889,0H50.328v4.444h4.444Zm8.889,0H59.217v4.444h4.444Zm4.445-15.556H65.883V39.123H61.439v4.444H43.661V39.123H39.217v4.444H36.994a4.424,4.424,0,0,0-4.422,4.444L32.55,79.123A4.443,4.443,0,0,0,37,83.567H68.106a4.458,4.458,0,0,0,4.444-4.444V48.012a4.458,4.458,0,0,0-4.444-4.445Zm0,35.556H36.994V54.679H68.106Z" transform="translate(-32.55 -39.123)" fill="#A4B4C0"/>
</svg>
